<svg xmlns="http://www.w3.org/2000/svg" viewBox="0 0 16 16" fill="none" shape-rendering="crispEdges"><metadata xmlns:rdf="http://www.w3.org/1999/02/22-rdf-syntax-ns#" xmlns:xsi="http://www.w3.org/2001/XMLSchema-instance" xmlns:dc="http://purl.org/dc/elements/1.1/" xmlns:dcterms="http://purl.org/dc/terms/"><rdf:RDF><rdf:Description><dc:title>Pixel Art</dc:title><dc:creator>DiceBear</dc:creator><dc:source xsi:type="dcterms:URI">https://www.figma.com/community/file/1198754108850888330</dc:source><dcterms:license xsi:type="dcterms:URI">https://creativecommons.org/publicdomain/zero/1.0/</dcterms:license><dc:rights>„Pixel Art” (https://www.figma.com/community/file/1198754108850888330) by „DiceBear”, licensed under „CC0 1.0” (https://creativecommons.org/publicdomain/zero/1.0/)</dc:rights></rdf:Description></rdf:RDF></metadata><mask id="viewboxMask"><rect width="16" height="16" rx="0" ry="0" x="0" y="0" fill="#fff" /></mask><g mask="url(#viewboxMask)"><rect fill="#ff8a00" width="16" height="16" x="0" y="0" /><path d="M4 2h8v1h1v3h1v2h-1v3h-1v1H9v1h4v1h1v2H2v-2h1v-1h4v-1H4v-1H3V8H2V6h1V3h1V2Z" fill="#cb9e6e"/><path d="M4 2h8v1h1v3h1v2h-1v3h-1v1H4v-1H3V8H2V6h1V3h1V2Z" fill="#fff" fill-opacity=".1"/><path d="M4 13h2v1h1v1h2v-1h1v-1h2v3H4v-3Z" fill="#00b159"/><path fill="#fff" fill-opacity=".3" d="M10 14h1v1h-1zM11 13h1v1h-1zM9 15h1v1H9z"/><path fill="#fff" fill-opacity=".5" d="M9 14h1v1H9zM10 13h1v1h-1zM8 15h1v1H8z"/><path fill="#fff" fill-opacity=".3" d="M6 14H5v1h1zM5 13H4v1h1zM7 15H6v1h1z"/><path fill="#fff" fill-opacity=".5" d="M7 14H6v1h1zM6 13H5v1h1zM8 15H7v1h1z"/><path fill="#fff" d="M4 5h3v3H4zM9 5h3v3H9z"/><path fill="#588387" d="M10 5h2v2h-2zM5 5h2v2H5z"/><path fill="#fff" fill-opacity=".4" d="M5 5h1v1H5zM6 6h1v1H6zM10 5h1v1h-1zM11 6h1v1h-1z"/><path fill="#fff" fill-opacity=".7" d="M11 5h1v1h-1zM6 5h1v1H6z"/><path d="M7 9v1h1v1H6V9h1Z" fill="#c98276"/><path d="M3 4h1v3H3zM12 4h1v3h-1zM3 2h10v2H3z" fill="#83623b"/><path d="M12 1H4v1H3v2h12V3h-2V2h-1V1Z" fill="#614f8a"/><path fill="#fff" fill-opacity=".3" d="M11 4h-1V1h1z"/></g></svg>